<?xml version="1.0" standalone="no"?><!DOCTYPE svg PUBLIC "-//W3C//DTD SVG 1.1//EN" "http://www.w3.org/Graphics/SVG/1.1/DTD/svg11.dtd"><svg t="1728355658902" class="icon" viewBox="0 0 1024 1024" version="1.1" xmlns="http://www.w3.org/2000/svg" p-id="43375" xmlns:xlink="http://www.w3.org/1999/xlink" width="200" height="200"><path d="M0 0h1024v1024H0z" fill="#FFFFFF" fill-opacity="0" p-id="43376"></path><path d="M546.602667 837.034667c25.386667 25.344 65.92 25.344 86.186666 0l238.336-228.181334a153.045333 153.045333 0 0 0 0-218.026666c-60.842667-60.842667-167.338667-60.842667-228.181333 0-30.421333 25.344-76.032 25.344-101.376 0-60.842667-60.842667-167.338667-60.842667-228.181333 0a153.045333 153.045333 0 0 0 0 218.026666l233.216 228.181334z" fill="#FFB0B2" p-id="43377"></path><path d="M445.226667 852.224c35.498667 35.498667 86.186667 35.498667 121.685333 0l329.557333-329.557333c86.186667-86.186667 86.186667-228.181333 0-314.368-86.186667-86.186667-228.138667-86.186667-314.368 0L577.024 213.333333c-40.533333 40.533333-101.376 40.533333-141.952 0l-5.077333-5.12c-86.186667-86.186667-228.181333-86.186667-314.368 0-86.186667 86.229333-86.186667 228.224 0 314.410667l329.6 329.557333z m-35.498667 35.498667l-329.6-329.557334c-106.453333-106.496-106.453333-278.869333 0-390.4 106.496-111.573333 278.869333-106.496 390.4 0l5.12 5.034667a49.024 49.024 0 0 0 70.954667 0l5.12-5.077333c106.453333-106.453333 278.826667-106.453333 390.4 0 111.530667 106.496 106.496 278.869333 0 390.4l-329.6 329.6c-60.842667 55.808-152.106667 55.808-202.794667 0z" fill="#f16349" p-id="43378" class=""></path></svg>