<?xml version="1.0" standalone="no"?><!DOCTYPE svg PUBLIC "-//W3C//DTD SVG 1.1//EN" "http://www.w3.org/Graphics/SVG/1.1/DTD/svg11.dtd"><svg t="1728350019172" class="icon" viewBox="0 0 1024 1024" version="1.1" xmlns="http://www.w3.org/2000/svg" p-id="30078" xmlns:xlink="http://www.w3.org/1999/xlink" width="200" height="200"><path d="M722.71630973 324.29770403v52.61003496c-18.13504304 8.97546589-31.75933906 25.22335854-40.82685997 48.69765347-9.06752091 23.47429373-13.62429603 54.35910098-13.62429603 92.74647559v16.33994889H742.14013762v157.83010608h-172.60510382v-118.01586225c0-71.57358288 12.70373612-128.18805677 38.11120712-169.88944856 25.40747101-41.70139299 63.7488175-68.4897051 115.07006881-80.31890818z m-287.67517142 0v52.61003496c-18.13504304 8.97546589-31.75933906 25.22335854-40.82685997 48.69765347-9.06752091 23.47429373-13.62429603 54.35910098-13.62429725 92.74647559v16.33994889h73.87498511v157.83010608H281.85986238v-118.01586225c0-71.57358288 12.70373612-128.18805677 38.11120711-169.88944856 25.40747101-41.70139299 63.7488175-68.4897051 115.07006882-80.31890818z" fill="#ffffff" p-id="30079"></path></svg>