<svg xmlns="http://www.w3.org/2000/svg" width="58" height="17" viewBox="0 0 58 17">
    <g fill="#BBB" fill-rule="evenodd">
        <path d="M10.891087 9.47687343L13.4851122 12.0708987C13.8757299 12.4615164 13.8785283 13.0920344 13.4852814 13.4852814 13.0947571 13.8758057 12.4580901 13.8723037 12.0708987 13.4851122L9.47687343 10.891087C7.13366904 12.5610153 3.85958515 12.3448665 1.75735931 10.2426407-.585786438 7.89949494-.585786438 4.10050506 1.75735931 1.75735931 4.10050506-.585786438 7.89949494-.585786438 10.2426407 1.75735931 12.3448665 3.85958515 12.5610153 7.13366904 10.891087 9.47687343zM3.17157288 8.82842712C4.73367004 10.3905243 7.26632996 10.3905243 8.82842712 8.82842712 10.3905243 7.26632996 10.3905243 4.73367004 8.82842712 3.17157288 7.26632996 1.60947571 4.73367004 1.60947571 3.17157288 3.17157288 1.60947571 4.73367004 1.60947571 7.26632996 3.17157288 8.82842712zM21 5.58578644L18.8754252 3.46121168C18.4937763 3.0795627 17.8549904 3.0739418 17.4644661 3.46446609 17.0712191 3.85771305 17.0724848 4.48669832 17.4612117 4.87542525L19.5857864 7 17.4612117 9.12457475C17.0795627 9.50622374 17.0739418 10.1450096 17.4644661 10.5355339 17.857713 10.9287809 18.4866983 10.9275152 18.8754252 10.5387883L21 8.41421356 23.1245748 10.5387883C23.5062237 10.9204373 24.1450096 10.9260582 24.5355339 10.5355339 24.9287809 10.142287 24.9275152 9.51330168 24.5387883 9.12457475L22.4142136 7 24.5387883 4.87542525C24.9204373 4.49377626 24.9260582 3.85499039 24.5355339 3.46446609 24.142287 3.07121914 23.5133017 3.07248475 23.1245748 3.46121168L21 5.58578644zM21 14C17.1340068 14 14 10.8659932 14 7 14 3.13400675 17.1340068 0 21 0 24.8659932 0 28 3.13400675 28 7 28 10.8659932 24.8659932 14 21 14z"/>
    </g>
    <g stroke="none" stroke-width="1" fill="none" fill-rule="evenodd" transform="translate(28, 0)">
        <circle stroke="#999999" cx="7" cy="7" r="6.5"></circle>
        <rect id="Rectangle" fill="#999999" transform="translate(13.500000, 13.500000) rotate(45.000000) translate(-13.500000, -13.500000) " x="10" y="13" width="7" height="1" rx="0.5"></rect>
    </g>
    <g transform="translate(45, 0)">
        <g stroke="none" stroke-width="1" fill-rule="evenodd" fill="#999999" transform="translate(-150, -9)">
            <polygon points="156.5 14.7928932 161.449747 9.84314575 162.156854 10.5502525 157.207107 15.5 162.156854 20.4497475 161.449747 21.1568542 156.5 16.2071068 151.550253 21.1568542 150.843146 20.4497475 155.792893 15.5 150.843146 10.5502525 151.550253 9.84314575"></polygon>
        </g>
    </g>
</svg>
